<svg xmlns="http://www.w3.org/2000/svg" xmlns:xlink="http://www.w3.org/1999/xlink" width="100" height="100" viewBox="0 0 100 100"><g><g fill="#FFF" transform="translate(50 50) scale(0.69 0.69) rotate(0) translate(-50 -50)"><svg xmlns="http://www.w3.org/2000/svg" x="0" y="0" fill="#FFF" viewBox="0 0 100 100"><title>Sacred geometry RTE</title><g data-name="Layer 2"><path d="M50.00006,4.49219H50a45.50772,45.50772,0,1,0,.00006,0ZM92.92877,38.25H76.39551l-.17121-.221,6.04-10.30548a.5.5,0,0,0-.43127-.75281L68.0163,26.96814l5.01117-8.50739a.5.5,0,0,0-.43079-.75372H60.482L51.04016,5.51849A44.47626,44.47626,0,0,1,92.92877,38.25ZM59.217,17.707H50.08044a.16171.16171,0,0,0-.16107,0H40.77606L49.99982,5.80847ZM44.85291,27.96387l4.33544.00079L43.96893,38.25H39.78821l-.481-.81647ZM38.726,36.447l-4.99865-8.48517,9.96679.00183Zm21.97034.97791-.486.82507H56.01593L50.78149,27.965l4.371.00079ZM56.31171,27.966l9.9552.00183L61.27734,36.4386ZM25.08508,61.71875h12.288l-5.05762,9.6308-7.33167-9.45777Zm32.69544-5.64941H54.793l2.26056-2.81067,1.09558,2.08642Zm-4.27088,0H50.87476l4.047-6.87061,1.62488,3.09454Zm-1.3587-12.14746,1.96857,3.749H45.87982l1.96881-3.749Zm-3.77716-1,1.62616-3.0965,1.62591,3.0965Zm4.90662,1h3.58905l-1.89753,3.22143Zm-8.253,3.22149-1.89782-3.22149h3.5896Zm9.04468,1.52753-4.07214,6.91327L45.92725,48.6709Zm-1.36676,8.39844-2.696,3.35205L47.308,57.06934Zm3.06873-8.39844h3.686L57.23,51.44366Zm.04767-1,2.07446-3.52179,1.7923,3.52179Zm1.44983-4.749H52.75531L50.82825,39.252h4.57556ZM56.52588,39.252h3.0943l-1.66,2.81824Zm-9.28156,3.66993H42.7196L44.58191,39.252h4.58972Zm-5.21008-.85932L40.37848,39.252h3.082Zm2.14325,5.60834H40.30963l1.78992-3.52722Zm.04773,1-1.454,2.76861L40.54016,48.6709Zm.85229.52777,4.04755,6.87067H46.5022l-3.04712-3.78125Zm.14045,6.87067H42.2121l-.365-.7193L42.94836,53.253Zm-3.61975,1,1.85186,3.64941H39.02771l1.9165-3.64941Zm1.12139,0h3.3042l2.94086,3.64941H44.57153Zm12.18567,4.64941L49.985,71.3866l-4.906-9.66785Zm-3.85174-1,2.93512-3.64941h3.2829l-1.8573,3.64941Zm7.34009-3.64941h.66088l1.91626,3.64941H56.53625Zm1.79034,0H63.9057L61.94263,60.4187Zm-.52509-1-.38409-.73145L61.43262,51.098l2.53015,4.97138ZM58.705,54.25275,57.73688,52.409,60.409,49.08661l.46264.909Zm.19751-10.33087h5.06024l-2.53009,4.97137Zm-.28351-1L60.78076,39.252h.98639L63.918,42.92188Zm-17.2392,0H36.09308L38.24231,39.252h.97552Zm-.28912,1-2.52143,4.96881-2.52148-4.96881Zm-1.49957,5.165,2.6734,3.31757-.97248,1.85181-2.16211-4.26062Zm1.13061,6.25537-.38184.72712H36.04779l2.52148-4.96882Zm-.907,1.72712-1.7536,3.33911-1.95551-3.33911Zm-.98627,4.64941h5.12909l5.22009,10.28674-4.32452.00074Zm4.86585,10.28766L33.099,72.00824l5.00976-9.53961Zm10.8717.99817L50.00012,80.795l-4.5614-7.78882Zm-3.77386-.99933,5.23516-10.2865h5.15332L55.15222,72.00452Zm11.10247-9.527,5.001,9.52423-10.58423.00177ZM68.63727,50.974l5.7113,9.74475H62.9259ZM64.8092,55.52777l-2.81555-5.53223,2.82129-5.54339,3.2428,5.533ZM62.92627,39.252H74.34845l-5.71112,9.74439ZM45.09033,38.25,49.985,28.60461,54.89386,38.25Zm-8.007,1.002-5.70605,9.74341-5.706-9.74341Zm-1.8872,5.20148,2.81237,5.54218L35.202,55.52625l-3.24518-5.54139ZM37.084,60.71875H25.67072l5.7066-9.74445Zm7.19593,12.2876,4.84778,8.27783H40.01678L33.6012,73.00812Zm14.92114,9.27783-9.20123,11.878L40.792,82.28418Zm-8.32849-1,4.85272-8.27979L66.391,73.00262l-6.41528,8.28156ZM62.62531,61.71875H74.93469l.085.145-7.34173,9.47748Zm12.88238-1L69.21686,49.98517,75.50757,39.252h.39905l8.31457,10.7334-8.31457,10.7334ZM77.17163,39.252H92.53577L84.8537,49.16882ZM45.43848,26.964l4.56164-7.78931,4.56623,7.791ZM24.51239,39.252l6.28546,10.73291L24.51178,60.71875H24.0744l-8.32055-10.7334L24.0744,39.252ZM74.93573,38.25H62.33905l-.48285-.82379L67.31427,28.16l7.70532,9.9469Zm-6.505-10.2818,12.52978.00232-5.39606,9.20673Zm-2.03992-1.00037-10.66529-.002L50.88513,18.707h9.10651ZM61.25659,18.707H71.72186l-4.52038,7.67426Zm-12.14148,0-4.83539,8.25678-10.678-.002L40.00085,18.707ZM32.792,26.37415,28.27527,18.707H38.73553Zm-.1131,1.77813L38.14746,37.435l-.47729.815H25.08453l-.10046-.17151Zm-8.23931,8.9964-5.38166-9.18951,12.5036.00226ZM7.43451,39.252H22.80908l-7.68786,9.9173-5.57294-7.189Zm15.36682,21.4668H7.43329l7.68616-9.915Zm8.74695,11.28973-12.49042.00214L24.43549,62.828Zm7.18652,9.2757H28.22766l4.24475-8.08289Zm28.79-8.08344,4.24451,8.08344H61.26318Zm8.04926-10.391,5.38635,9.19037-12.5072.00214ZM84.86475,50.8161l7.671,9.90265H77.19385Zm-66.33667-32.288A44.357,44.357,0,0,1,48.95935,5.51849L39.51074,17.707H27.40039a.5.5,0,0,0-.43085.75379l5.00788,8.50073L18.18561,26.959a.5.5,0,0,0-.43158.75269l6.02533,10.28864-.19354.24969H7.07117A44.46029,44.46029,0,0,1,18.52808,18.52808ZM6.6601,39.88678l2.14233,2.76355,5.68457,7.337L6.65491,60.09064A44.3665,44.3665,0,0,1,6.6601,39.88678Zm.40216,21.832H23.57611l.19934.25732L17.754,72.25806a.5.5,0,0,0,.43158.75268l13.2586-.00226L26.9577,81.5517a.5.5,0,0,0,.44269.73248H39.50958l9.45014,12.19733A44.47753,44.47753,0,0,1,7.06226,61.71875Zm74.4096,19.75311A44.357,44.357,0,0,1,51.0401,94.48151l9.44843-12.19733H72.59668a.5.5,0,0,0,.44263-.73248l-4.4892-8.54944L81.83307,73a.5.5,0,0,0,.43127-.75281l-6.03039-10.2893.18524-.23914H92.93762A44.4596,44.4596,0,0,1,81.47186,81.47186ZM93.338,60.12128l-7.8407-10.12171,7.84052-10.12164A44.36817,44.36817,0,0,1,93.338,60.12128Z"/></g></svg></g></g></svg>